<mxfile host="Electron" modified="2024-04-05T05:06:02.479Z" agent="Mozilla/5.0 (Macintosh; Intel Mac OS X 10_15_7) AppleWebKit/537.36 (KHTML, like Gecko) draw.io/24.1.0 Chrome/120.0.6099.109 Electron/28.1.0 Safari/537.36" etag="5cC4NpaR2cDanaG90H-H" version="24.1.0" type="device">
  <diagram name="Page-1" id="mj_BLXnqH0TJP4dCVhNi">
    <mxGraphModel dx="748" dy="574" grid="1" gridSize="10" guides="1" tooltips="1" connect="1" arrows="1" fold="1" page="1" pageScale="1" pageWidth="850" pageHeight="1100" math="0" shadow="0">
      <root>
        <mxCell id="0" />
        <mxCell id="1" parent="0" />
        <mxCell id="R-6YJzpoYirbouoizstF-1" value="HoopsEYE" style="rounded=1;whiteSpace=wrap;html=1;" parent="1" vertex="1">
          <mxGeometry x="400" y="40" width="120" height="60" as="geometry" />
        </mxCell>
        <mxCell id="R-6YJzpoYirbouoizstF-2" value="GET USER&lt;div&gt;DETAILS&lt;/div&gt;" style="rounded=0;whiteSpace=wrap;html=1;" parent="1" vertex="1">
          <mxGeometry x="120" y="240" width="120" height="60" as="geometry" />
        </mxCell>
        <mxCell id="R-6YJzpoYirbouoizstF-3" value="PROCESS VIDEO" style="rounded=0;whiteSpace=wrap;html=1;" parent="1" vertex="1">
          <mxGeometry x="390" y="270" width="120" height="60" as="geometry" />
        </mxCell>
        <mxCell id="R-6YJzpoYirbouoizstF-4" value="OUTPUT&lt;div&gt;GAME INSIGHTS&lt;/div&gt;" style="rounded=0;whiteSpace=wrap;html=1;" parent="1" vertex="1">
          <mxGeometry x="710" y="193" width="120" height="60" as="geometry" />
        </mxCell>
        <mxCell id="R-6YJzpoYirbouoizstF-5" value="USER&lt;div&gt;DETAILS&lt;/div&gt;" style="rounded=0;whiteSpace=wrap;html=1;" parent="1" vertex="1">
          <mxGeometry x="120" y="430" width="120" height="60" as="geometry" />
        </mxCell>
        <mxCell id="R-6YJzpoYirbouoizstF-6" value="CAPTURE&lt;div&gt;VIDEO FRAME&lt;/div&gt;" style="rounded=0;whiteSpace=wrap;html=1;" parent="1" vertex="1">
          <mxGeometry x="280" y="520" width="75" height="60" as="geometry" />
        </mxCell>
        <mxCell id="R-6YJzpoYirbouoizstF-8" value="GENERATE&lt;div&gt;PROCESSED FRAMES&lt;/div&gt;" style="rounded=0;whiteSpace=wrap;html=1;" parent="1" vertex="1">
          <mxGeometry x="610" y="520" width="70" height="60" as="geometry" />
        </mxCell>
        <mxCell id="R-6YJzpoYirbouoizstF-9" value="" style="endArrow=none;html=1;rounded=0;entryX=0.5;entryY=1;entryDx=0;entryDy=0;" parent="1" target="R-6YJzpoYirbouoizstF-1" edge="1">
          <mxGeometry width="50" height="50" relative="1" as="geometry">
            <mxPoint x="180" y="240" as="sourcePoint" />
            <mxPoint x="230" y="190" as="targetPoint" />
          </mxGeometry>
        </mxCell>
        <mxCell id="R-6YJzpoYirbouoizstF-10" value="" style="endArrow=none;html=1;rounded=0;exitX=0.6;exitY=0.007;exitDx=0;exitDy=0;exitPerimeter=0;entryX=0.43;entryY=0.98;entryDx=0;entryDy=0;entryPerimeter=0;" parent="1" source="R-6YJzpoYirbouoizstF-4" target="R-6YJzpoYirbouoizstF-1" edge="1">
          <mxGeometry width="50" height="50" relative="1" as="geometry">
            <mxPoint x="415" y="150" as="sourcePoint" />
            <mxPoint x="465" y="100" as="targetPoint" />
          </mxGeometry>
        </mxCell>
        <mxCell id="R-6YJzpoYirbouoizstF-11" value="" style="endArrow=none;html=1;rounded=0;entryX=0.5;entryY=1;entryDx=0;entryDy=0;exitX=0.5;exitY=0;exitDx=0;exitDy=0;" parent="1" source="R-6YJzpoYirbouoizstF-3" target="R-6YJzpoYirbouoizstF-1" edge="1">
          <mxGeometry width="50" height="50" relative="1" as="geometry">
            <mxPoint x="400" y="330" as="sourcePoint" />
            <mxPoint x="450" y="280" as="targetPoint" />
          </mxGeometry>
        </mxCell>
        <mxCell id="R-6YJzpoYirbouoizstF-12" value="" style="endArrow=none;html=1;rounded=0;entryX=0.45;entryY=1.007;entryDx=0;entryDy=0;entryPerimeter=0;exitX=0.443;exitY=-0.027;exitDx=0;exitDy=0;exitPerimeter=0;" parent="1" source="R-6YJzpoYirbouoizstF-5" target="R-6YJzpoYirbouoizstF-2" edge="1">
          <mxGeometry width="50" height="50" relative="1" as="geometry">
            <mxPoint x="170" y="430" as="sourcePoint" />
            <mxPoint x="220" y="380" as="targetPoint" />
          </mxGeometry>
        </mxCell>
        <mxCell id="R-6YJzpoYirbouoizstF-13" value="" style="endArrow=none;html=1;rounded=0;entryX=0.44;entryY=0.98;entryDx=0;entryDy=0;entryPerimeter=0;exitX=0.5;exitY=0;exitDx=0;exitDy=0;" parent="1" source="R-6YJzpoYirbouoizstF-6" target="R-6YJzpoYirbouoizstF-3" edge="1">
          <mxGeometry width="50" height="50" relative="1" as="geometry">
            <mxPoint x="340" y="500" as="sourcePoint" />
            <mxPoint x="390" y="450" as="targetPoint" />
          </mxGeometry>
        </mxCell>
        <mxCell id="R-6YJzpoYirbouoizstF-15" value="" style="endArrow=none;html=1;rounded=0;exitX=0.5;exitY=0;exitDx=0;exitDy=0;entryX=0.75;entryY=1;entryDx=0;entryDy=0;" parent="1" source="R-6YJzpoYirbouoizstF-8" target="R-6YJzpoYirbouoizstF-3" edge="1">
          <mxGeometry width="50" height="50" relative="1" as="geometry">
            <mxPoint x="400" y="330" as="sourcePoint" />
            <mxPoint x="480" y="350" as="targetPoint" />
          </mxGeometry>
        </mxCell>
        <mxCell id="R-6YJzpoYirbouoizstF-16" value="" style="endArrow=classic;html=1;rounded=0;" parent="1" edge="1">
          <mxGeometry width="50" height="50" relative="1" as="geometry">
            <mxPoint x="250" y="180" as="sourcePoint" />
            <mxPoint x="320" y="140" as="targetPoint" />
          </mxGeometry>
        </mxCell>
        <mxCell id="R-6YJzpoYirbouoizstF-17" value="USER&lt;div&gt;DETAILS&lt;/div&gt;" style="edgeLabel;html=1;align=center;verticalAlign=middle;resizable=0;points=[];" parent="R-6YJzpoYirbouoizstF-16" vertex="1" connectable="0">
          <mxGeometry x="-0.4954" y="2" relative="1" as="geometry">
            <mxPoint as="offset" />
          </mxGeometry>
        </mxCell>
        <mxCell id="R-6YJzpoYirbouoizstF-18" value="" style="endArrow=classic;html=1;rounded=0;" parent="1" edge="1">
          <mxGeometry width="50" height="50" relative="1" as="geometry">
            <mxPoint x="540" y="90" as="sourcePoint" />
            <mxPoint x="780" y="180" as="targetPoint" />
          </mxGeometry>
        </mxCell>
        <mxCell id="R-6YJzpoYirbouoizstF-19" value="GAME INSIGHTS" style="edgeLabel;html=1;align=center;verticalAlign=middle;resizable=0;points=[];" parent="R-6YJzpoYirbouoizstF-18" vertex="1" connectable="0">
          <mxGeometry x="-0.2732" y="1" relative="1" as="geometry">
            <mxPoint as="offset" />
          </mxGeometry>
        </mxCell>
        <mxCell id="R-6YJzpoYirbouoizstF-20" value="" style="endArrow=classic;html=1;rounded=0;" parent="1" edge="1">
          <mxGeometry width="50" height="50" relative="1" as="geometry">
            <mxPoint x="150" y="410" as="sourcePoint" />
            <mxPoint x="150" y="340" as="targetPoint" />
          </mxGeometry>
        </mxCell>
        <mxCell id="R-6YJzpoYirbouoizstF-21" value="USER&lt;div&gt;DETAILS&lt;/div&gt;" style="text;html=1;align=center;verticalAlign=middle;resizable=0;points=[];autosize=1;strokeColor=none;fillColor=none;" parent="1" vertex="1">
          <mxGeometry x="95" y="353" width="70" height="40" as="geometry" />
        </mxCell>
        <mxCell id="R-6YJzpoYirbouoizstF-22" value="" style="endArrow=classic;html=1;rounded=0;" parent="1" edge="1">
          <mxGeometry width="50" height="50" relative="1" as="geometry">
            <mxPoint x="440" y="130" as="sourcePoint" />
            <mxPoint x="430" y="230" as="targetPoint" />
          </mxGeometry>
        </mxCell>
        <mxCell id="R-6YJzpoYirbouoizstF-23" value="USER&lt;div&gt;DETAILS&lt;/div&gt;" style="text;html=1;align=center;verticalAlign=middle;resizable=0;points=[];autosize=1;strokeColor=none;fillColor=none;" parent="1" vertex="1">
          <mxGeometry x="355" y="153" width="70" height="40" as="geometry" />
        </mxCell>
        <mxCell id="R-6YJzpoYirbouoizstF-24" value="" style="endArrow=classic;html=1;rounded=0;" parent="1" edge="1">
          <mxGeometry width="50" height="50" relative="1" as="geometry">
            <mxPoint x="470" y="220" as="sourcePoint" />
            <mxPoint x="480" y="140" as="targetPoint" />
          </mxGeometry>
        </mxCell>
        <mxCell id="R-6YJzpoYirbouoizstF-25" value="GAME INSIGHTS" style="text;html=1;align=center;verticalAlign=middle;resizable=0;points=[];autosize=1;strokeColor=none;fillColor=none;" parent="1" vertex="1">
          <mxGeometry x="450" y="158" width="120" height="30" as="geometry" />
        </mxCell>
        <mxCell id="R-6YJzpoYirbouoizstF-26" value="" style="endArrow=classic;html=1;rounded=0;" parent="1" edge="1">
          <mxGeometry width="50" height="50" relative="1" as="geometry">
            <mxPoint x="390" y="350" as="sourcePoint" />
            <mxPoint x="330" y="450" as="targetPoint" />
          </mxGeometry>
        </mxCell>
        <mxCell id="R-6YJzpoYirbouoizstF-27" value="CAPTURE&lt;div&gt;FRAME BY FRAME&lt;/div&gt;" style="text;html=1;align=center;verticalAlign=middle;resizable=0;points=[];autosize=1;strokeColor=none;fillColor=none;" parent="1" vertex="1">
          <mxGeometry x="246" y="363" width="130" height="40" as="geometry" />
        </mxCell>
        <mxCell id="R-6YJzpoYirbouoizstF-28" value="" style="endArrow=classic;html=1;rounded=0;" parent="1" edge="1">
          <mxGeometry width="50" height="50" relative="1" as="geometry">
            <mxPoint x="360" y="490" as="sourcePoint" />
            <mxPoint x="430" y="380" as="targetPoint" />
          </mxGeometry>
        </mxCell>
        <mxCell id="R-6YJzpoYirbouoizstF-30" value="CAPTURED&lt;div&gt;FRAME&lt;/div&gt;" style="text;html=1;align=center;verticalAlign=middle;resizable=0;points=[];autosize=1;strokeColor=none;fillColor=none;" parent="1" vertex="1">
          <mxGeometry x="345" y="430" width="90" height="40" as="geometry" />
        </mxCell>
        <mxCell id="R-6YJzpoYirbouoizstF-35" value="" style="endArrow=classic;html=1;rounded=0;" parent="1" edge="1">
          <mxGeometry width="50" height="50" relative="1" as="geometry">
            <mxPoint x="490" y="320" as="sourcePoint" />
            <mxPoint x="580" y="390" as="targetPoint" />
          </mxGeometry>
        </mxCell>
        <mxCell id="_8Hr58ZtWRTITsBWYa7S-1" value="CAPTURED FRAME" style="edgeLabel;html=1;align=center;verticalAlign=middle;resizable=0;points=[];" parent="R-6YJzpoYirbouoizstF-35" vertex="1" connectable="0">
          <mxGeometry x="-0.0846" y="1" relative="1" as="geometry">
            <mxPoint as="offset" />
          </mxGeometry>
        </mxCell>
        <mxCell id="R-6YJzpoYirbouoizstF-37" value="" style="endArrow=classic;html=1;rounded=0;" parent="1" edge="1">
          <mxGeometry width="50" height="50" relative="1" as="geometry">
            <mxPoint x="690" y="513" as="sourcePoint" />
            <mxPoint x="550" y="403" as="targetPoint" />
          </mxGeometry>
        </mxCell>
        <mxCell id="R-6YJzpoYirbouoizstF-38" value="PROCESSED FRAMES" style="edgeLabel;html=1;align=center;verticalAlign=middle;resizable=0;points=[];" parent="R-6YJzpoYirbouoizstF-37" vertex="1" connectable="0">
          <mxGeometry x="0.0477" relative="1" as="geometry">
            <mxPoint as="offset" />
          </mxGeometry>
        </mxCell>
      </root>
    </mxGraphModel>
  </diagram>
</mxfile>
